<?xml version="1.0" standalone="no"?>
<!DOCTYPE svg PUBLIC "-//W3C//DTD SVG 20010904//EN"
 "http://www.w3.org/TR/2001/REC-SVG-20010904/DTD/svg10.dtd">
<svg version="1.0" xmlns="http://www.w3.org/2000/svg"
 width="128.000000pt" height="128.000000pt" viewBox="0 0 128.000000 128.000000"
 preserveAspectRatio="xMidYMid meet">
<metadata>
Created by potrace 1.16, written by Peter Selinger 2001-2019
</metadata>
<g transform="translate(0.000000,128.000000) scale(0.100000,-0.100000)"
fill="#000000" stroke="none">
<path d="M0 988 c0 -291 0 -293 19 -263 10 17 29 38 41 48 14 12 19 24 15 35
-33 79 -2 178 66 212 21 11 46 20 57 20 23 0 42 19 42 42 0 11 9 36 20 57 34
68 133 99 212 66 11 -4 23 1 35 15 10 12 32 31 48 41 30 19 28 19 -262 19
l-293 0 0 -292z"/>
<path d="M725 1261 c17 -10 38 -29 48 -41 12 -14 24 -19 35 -15 79 33 178 2
212 -66 11 -21 20 -46 20 -57 0 -10 5 -23 12 -30 7 -7 20 -12 30 -12 11 0 36
-9 57 -20 68 -34 99 -133 66 -212 -4 -11 1 -23 15 -35 12 -10 31 -31 41 -48
19 -30 19 -28 19 263 l0 292 -292 0 c-291 0 -293 0 -263 -19z"/>
<path d="M592 1223 c-18 -9 -37 -24 -42 -33 -15 -29 -64 -44 -101 -31 -78 27
-140 -6 -160 -84 -13 -53 -31 -70 -86 -84 -75 -20 -110 -86 -82 -157 14 -38 5
-66 -35 -109 -19 -20 -38 -49 -41 -65 -7 -34 18 -96 45 -110 29 -15 44 -64 31
-101 -27 -78 6 -140 84 -160 53 -13 67 -29 88 -94 17 -54 15 -65 -12 -65 -18
0 -41 38 -41 68 0 23 -19 42 -42 42 -11 0 -36 9 -57 20 -68 34 -99 133 -66
212 4 11 -1 23 -15 35 -12 10 -31 32 -41 48 -19 30 -19 28 -19 -262 l0 -293
293 0 c290 0 292 0 262 19 -16 10 -38 29 -48 41 -12 14 -24 19 -35 15 -35 -13
-72 -17 -107 -11 -30 6 -36 11 -33 29 3 19 8 22 40 19 21 -2 54 2 74 8 40 14
88 0 104 -30 14 -27 76 -52 110 -45 16 3 45 22 65 41 43 40 71 49 109 35 72
-28 138 7 157 84 13 53 31 70 86 84 76 21 109 83 82 160 -13 37 2 86 31 101
27 14 52 76 45 110 -3 16 -22 45 -41 65 -40 43 -49 71 -35 109 28 71 -7 137
-82 157 -55 14 -73 31 -86 84 -20 78 -82 111 -160 84 -37 -13 -86 2 -101 31
-10 18 -68 50 -92 50 -7 0 -28 -8 -46 -17z m173 -145 c69 -17 137 -58 197
-119 220 -219 155 -593 -127 -729 -63 -31 -80 -35 -175 -38 -119 -4 -184 13
-272 69 -182 117 -254 373 -160 573 94 200 314 300 537 244z"/>
<path d="M543 1035 c-80 -22 -131 -52 -190 -111 -93 -92 -137 -227 -115 -346
33 -176 166 -309 340 -339 272 -48 524 220 458 487 -38 158 -147 268 -303 309
-70 18 -121 18 -190 0z m347 -185 c25 -25 34 -60 22 -90 -10 -25 -219 -273
-273 -322 -22 -21 -40 -28 -69 -28 -37 0 -43 5 -119 93 -86 98 -100 130 -79
174 32 67 110 63 168 -9 l33 -41 43 46 c28 31 49 45 59 41 24 -10 18 -26 -32
-87 -30 -35 -56 -57 -68 -56 -12 0 -37 21 -60 49 -22 27 -46 52 -53 55 -19 7
-52 -13 -52 -31 0 -17 135 -180 156 -188 18 -7 41 15 165 159 56 66 111 130
122 142 21 24 16 57 -10 67 -11 5 -33 -9 -67 -42 -82 -79 -109 -43 -31 41 39
41 50 47 85 47 26 0 47 -7 60 -20z"/>
<path d="M1265 561 c-3 -10 -19 -30 -36 -45 -21 -19 -28 -33 -24 -44 33 -79 2
-178 -66 -212 -21 -11 -46 -20 -57 -20 -10 0 -23 -5 -30 -12 -7 -7 -12 -20
-12 -30 0 -11 -9 -36 -20 -57 -34 -68 -133 -99 -212 -66 -11 4 -23 -1 -35 -15
-10 -12 -31 -31 -48 -41 -30 -19 -28 -19 263 -19 l292 0 0 290 c0 160 -2 290
-4 290 -3 0 -7 -8 -11 -19z"/>
</g>
</svg>
