<?xml version="1.0" standalone="no"?>
<!DOCTYPE svg PUBLIC "-//W3C//DTD SVG 20010904//EN"
 "http://www.w3.org/TR/2001/REC-SVG-20010904/DTD/svg10.dtd">
<svg version="1.0" xmlns="http://www.w3.org/2000/svg"
 width="128.000000pt" height="128.000000pt" viewBox="0 0 128.000000 128.000000"
 preserveAspectRatio="xMidYMid meet">

<g transform="translate(0.000000,128.000000) scale(0.100000,-0.100000)"
fill="#000000" stroke="none">
<path d="M0 973 c1 -268 3 -304 14 -277 8 17 28 46 46 64 21 21 29 37 24 49
-3 9 -9 37 -11 62 -9 76 32 132 115 159 43 14 48 19 62 62 27 83 83 124 159
115 25 -2 53 -8 62 -11 12 -5 28 3 49 24 18 18 47 38 64 46 27 11 -9 13 -276
14 l-308 0 0 -307z"/>
<path d="M696 1266 c17 -8 46 -28 64 -46 21 -21 37 -29 49 -24 9 3 37 9 62 11
76 9 132 -32 159 -115 14 -43 19 -48 62 -62 83 -27 124 -83 115 -159 -2 -25
-8 -53 -11 -62 -5 -12 3 -28 24 -49 18 -18 38 -47 46 -64 11 -27 13 9 14 277
l0 307 -307 0 c-268 -1 -304 -3 -277 -14z"/>
<path d="M559 1209 c-51 -48 -64 -52 -118 -38 -26 6 -59 9 -73 6 -35 -9 -76
-50 -83 -84 -15 -69 -29 -83 -98 -98 -34 -7 -75 -48 -84 -83 -3 -14 0 -47 6
-73 14 -54 10 -67 -38 -118 -26 -27 -31 -41 -31 -81 0 -40 5 -53 35 -86 42
-46 50 -70 36 -108 -16 -41 -13 -77 8 -110 22 -34 56 -55 87 -56 33 0 64 -31
75 -75 15 -61 15 -70 0 -70 -8 0 -21 21 -30 50 -15 46 -19 51 -63 65 -83 27
-124 83 -115 159 2 25 8 53 11 62 5 12 -3 28 -24 49 -18 18 -38 47 -46 64 -11
27 -13 -9 -14 -276 l0 -308 308 0 c267 1 303 3 276 14 -17 8 -46 28 -64 46
-22 21 -37 29 -49 24 -27 -11 -115 -15 -130 -6 -24 17 -2 33 34 26 19 -3 50
-1 69 6 45 14 63 9 110 -35 33 -30 46 -35 86 -35 40 0 53 5 86 35 47 44 65 49
110 35 68 -23 147 16 160 79 9 47 29 76 59 84 93 28 134 77 120 146 -4 20 -9
47 -11 61 -4 19 5 36 36 69 35 38 40 49 40 91 0 40 -5 53 -35 86 -44 47 -49
65 -35 110 23 69 -14 146 -77 159 -69 15 -83 29 -98 98 -7 34 -48 75 -83 84
-14 3 -47 0 -73 -6 -54 -14 -67 -10 -118 38 -27 26 -41 31 -81 31 -40 0 -54
-5 -81 -31z m184 -134 c181 -47 309 -186 339 -369 48 -292 -222 -559 -513
-507 -193 35 -339 182 -371 374 -51 307 246 580 545 502z"/>
<path d="M570 1049 c-121 -20 -248 -117 -303 -229 -52 -107 -52 -249 0 -358
34 -73 122 -160 198 -198 56 -27 68 -29 175 -29 107 0 119 2 175 29 121 60
216 187 233 316 39 280 -201 515 -478 469z m293 -191 c54 -28 61 -78 20 -130
-99 -123 -268 -307 -286 -312 -43 -10 -67 7 -147 101 -90 105 -99 135 -55 178
41 42 84 31 145 -38 l36 -40 42 48 c31 35 46 45 54 37 12 -12 -11 -48 -65
-100 l-35 -34 -47 56 c-26 30 -54 57 -62 60 -19 8 -49 -9 -57 -30 -8 -21 5
-41 84 -133 43 -50 69 -71 85 -71 17 0 55 37 147 143 154 177 163 189 148 216
-19 37 -61 27 -103 -24 -41 -48 -57 -56 -57 -26 0 22 92 111 115 111 9 0 26
-5 38 -12z"/>
<path d="M1266 587 c-3 -13 -22 -41 -41 -62 -24 -25 -34 -43 -29 -54 3 -9 9
-37 11 -62 9 -76 -32 -132 -115 -159 -43 -14 -48 -19 -62 -62 -27 -83 -83
-124 -159 -115 -25 2 -53 8 -62 11 -12 5 -28 -3 -49 -24 -18 -18 -47 -38 -64
-46 -27 -11 9 -13 277 -14 l307 0 0 305 c0 168 -2 305 -4 305 -2 0 -6 -11 -10
-23z"/>
</g>
</svg>
